<?xml version="1.0" encoding="utf-8"?>
<!-- Generator: Adobe Illustrator 28.2.0, SVG Export Plug-In . SVG Version: 6.00 Build 0)  -->
<svg version="1.1" id="Layer_1" xmlns="http://www.w3.org/2000/svg" xmlns:xlink="http://www.w3.org/1999/xlink" x="0px" y="0px"
	 viewBox="0 0 8192 3920" style="enable-background:new 0 0 8192 3920;" xml:space="preserve">
<style type="text/css">
	.st0{display:none;}
	.st1{display:inline;fill:#0384A3;}
	.st2{display:inline;fill:#EB7B23;}
	.st3{display:inline;fill:#A32123;}
	.st4{fill:#FFFFFF;}
	.st5{display:inline;fill:#FFFFFF;}
</style>
<g class="st0">
	<path class="st1" d="M4041,1649.2h-11.8c0.2,2.6,1.8,3.9,4.9,3.9c2,0,3.8-0.5,5.2-1.4v4c-1.6,0.9-3.9,1.4-6.5,1.4
		c-2.9,0-5.2-0.8-6.8-2.4s-2.4-3.9-2.4-6.8c0-3,0.9-5.4,2.6-7.1c1.8-1.8,3.9-2.6,6.4-2.6c2.6,0,4.7,0.8,6.1,2.3
		c1.4,1.6,2.2,3.7,2.2,6.4L4041,1649.2L4041,1649.2z M4035.9,1645.8c0-2.6-1-3.9-3.1-3.9c-0.9,0-1.6,0.4-2.3,1.1s-1,1.6-1.2,2.8
		H4035.9L4035.9,1645.8z"/>
	<path class="st1" d="M4055.3,1656.4c-0.8,0.5-2,0.6-3.7,0.6c-3.9,0-5.9-2-5.9-6.1v-8.3h-3v-4.1h3v-3.9l5.6-1.6v5.5h4v4.1h-4v7.3
		c0,1.9,0.7,2.8,2.2,2.8c0.6,0,1.2-0.2,1.8-0.5L4055.3,1656.4L4055.3,1656.4z"/>
	<path class="st1" d="M4070.2,1643.6c-0.7-0.3-1.5-0.6-2.3-0.6c-1.2,0-2.2,0.5-2.8,1.3c-0.7,0.9-1,2.1-1,3.6v8.6h-5.6v-18.1h5.6v3.4
		h0.1c0.9-2.4,2.4-3.7,4.8-3.7c0.6,0,1,0.1,1.4,0.2v5.3H4070.2z"/>
	<path class="st2" d="M4089.1,1649.2h-11.8c0.2,2.6,1.8,3.9,4.9,3.9c2,0,3.8-0.5,5.2-1.4v4c-1.6,0.9-3.9,1.4-6.5,1.4
		c-2.9,0-5.2-0.8-6.8-2.4s-2.4-3.9-2.4-6.8c0-3,0.9-5.4,2.6-7.1c1.8-1.8,3.9-2.6,6.4-2.6c2.6,0,4.7,0.8,6.1,2.3
		c1.4,1.6,2.2,3.7,2.2,6.4L4089.1,1649.2L4089.1,1649.2z M4083.9,1645.8c0-2.6-1-3.9-3.1-3.9c-0.9,0-1.6,0.4-2.3,1.1s-1,1.6-1.2,2.8
		H4083.9L4083.9,1645.8z"/>
	<path class="st2" d="M4109.6,1638.6l-6.7,18.1h-6.4l-6.4-18.1h6l3.1,11.2c0.3,1.3,0.6,2.3,0.6,3.2h0.1c0.1-0.9,0.3-1.9,0.6-3.1
		l3.2-11.3L4109.6,1638.6L4109.6,1638.6z"/>
	<path class="st2" d="M4127,1656.7h-5.3v-2.6h-0.1c-1.2,2-3,3-5.4,3c-1.8,0-3.1-0.5-4.2-1.5c-1-1-1.5-2.3-1.5-4
		c0-3.5,2.1-5.5,6.3-6.1l4.9-0.6c0-2-1.1-3-3.2-3c-2.2,0-4.2,0.6-6.1,1.9v-4.2c0.8-0.4,1.8-0.7,3.2-1.1c1.4-0.3,2.6-0.5,3.7-0.5
		c5.2,0,7.7,2.6,7.7,7.7V1656.7L4127,1656.7z M4121.8,1649.3v-1.2l-3.3,0.4c-1.8,0.2-2.7,1.1-2.7,2.4c0,0.6,0.2,1.1,0.7,1.5
		s1,0.6,1.8,0.6c1,0,1.9-0.3,2.6-1.1C4121.4,1651.4,4121.8,1650.4,4121.8,1649.3z"/>
	<path class="st3" d="M4149.1,1654.6c0,3.4-1,6-2.9,7.8s-4.8,2.8-8.4,2.8c-2.4,0-4.4-0.3-5.8-1v-4.7c1.9,1.1,3.8,1.6,5.6,1.6
		s3.4-0.5,4.4-1.5s1.5-2.3,1.5-4v-1.4h-0.1c-1.3,2-3.1,3-5.6,3c-2.3,0-4.2-0.8-5.5-2.4c-1.4-1.6-2-3.8-2-6.5c0-3.1,0.7-5.5,2.3-7.3
		c1.5-1.8,3.5-2.7,6-2.7c2.2,0,3.9,0.9,4.9,2.6h0.1v-2.1h5.6L4149.1,1654.6L4149.1,1654.6z M4143.7,1648v-1.4c0-1.1-0.3-2.1-1-2.9
		s-1.5-1.2-2.6-1.2c-1.3,0-2.2,0.5-2.9,1.4c-0.7,1-1.1,2.3-1.1,4.1c0,1.5,0.3,2.7,1,3.6s1.6,1.3,2.7,1.3s2.1-0.5,2.8-1.3
		C4143.3,1650.6,4143.7,1649.4,4143.7,1648z"/>
	<path class="st3" d="M4162.4,1657.1c-3,0-5.4-0.9-7.1-2.6s-2.6-4-2.6-6.9c0-3,0.9-5.3,2.7-7c1.8-1.7,4.2-2.6,7.3-2.6
		c3,0,5.3,0.9,7.1,2.6c1.7,1.7,2.6,3.9,2.6,6.7c0,3-0.9,5.3-2.6,7.1C4167.9,1656.3,4165.5,1657.1,4162.4,1657.1z M4162.6,1642.4
		c-1.3,0-2.3,0.5-3.1,1.4c-0.7,0.9-1.1,2.2-1.1,3.9c0,3.5,1.4,5.2,4.2,5.2c2.7,0,4-1.8,4-5.3S4165.3,1642.4,4162.6,1642.4z"/>
</g>
<g>
	<path class="st4" d="M5127.01,1756.71c53.94,46.94,97.11,102.72,133.69,163.83c112.73,188.43,150.84,392.45,123.2,608.77
		c-26.23,205.2-118.97,379.11-260.46,527.7c-133.31,140.03-299.43,220.41-486.51,260.87c-28.62,6.2-38.63-2.25-38.73-31.32
		c-1.18-293.82-2.36-587.67-3.46-881.49c-0.14-33.95,5.44-39.56,38.87-39.22c15.59,0.14,31.15,1,46.7,1.25
		c12.58,0.17,19.71,5.99,19.71,18.81c0.03,19.61-0.59,39.18-0.59,58.79c-0.07,254.05-0.03,508.06-0.03,762.11
		c0,28.34,4.4,31.67,31.7,22.52c206.97-69.57,368.69-197.27,485.65-381.19c108.51-170.69,155.14-358.15,138.82-559.2
		c-16.18-199.66-90.11-376.55-224.43-526.8C5129.64,1760.45,5128.39,1758.55,5127.01,1756.71z"/>
	<path class="st4" d="M4478.91,3318.03c-11.09,5.89-18.5,3.85-19.92-7.66c-3.71-30.18-9.29-60.42-9.35-90.66
		c-1.18-473.97-1.59-947.94-2.18-1421.91c0-9.77,2.43-20.34-0.55-29.1c-2.98-8.77-11.19-15.8-17.36-23.39
		c-4.68-5.75-11.99-10.46-14.1-16.94c-3.12-9.63-3.6-20.44-3.64-30.73c-0.21-118.35-0.24-236.73-0.14-355.07
		c0.21-227.44,0.62-454.92,0.66-682.36c0-20.09,2.74-35.58,23.35-47.43c8.83-5.09,12.16-25.5,12.33-39.01
		c1.14-102.76,0.97-205.51,1.07-308.27c0.07-50.23-1-100.47,0.45-150.67c0.38-13.51,8.07-26.81,12.4-40.19c2.42,0,4.82,0,7.24,0
		c3.26,15.24,9.25,30.45,9.32,45.7c0.69,152.99,0.48,305.98,0.38,458.97c0,19.12,0.45,35.89,23.94,44.21
		c6.93,2.46,11.68,20.47,11.81,31.42c0.94,89.49,0.55,178.97,0.55,268.46c0,66.38-0.17,132.79,0.07,199.17
		c0.07,17.67-4.99,30.07-22.48,38.77c-7.28,3.6-12.58,17.46-13.27,27.02c-1.84,25.26-0.69,50.75-0.69,76.15
		c0.03,677.78,0.03,1355.6,0.07,2033.39C4478.91,3304.8,4478.91,3311.66,4478.91,3318.03z"/>
	<path class="st4" d="M4521.94,2252.65c0.03-283.39,0-566.78,0.03-850.18c0-56.57,0.28-113.11,0.52-169.69
		c0.14-28.37,3.81-31.91,31.87-32.01c12.13-0.03,24.25-0.52,36.34-0.49c19.75,0.07,36.41,16.59,36.41,35.89
		c-0.17,255.12-0.38,510.21-0.55,765.33c-0.07,95.24,0.03,190.48-0.03,285.71c-0.03,33.09-2.29,35.2-35.03,36.24
		c-31.67,1-38.21,7.66-38.21,39.39c-0.03,222.8,0.21,445.6-0.17,668.4c-0.14,81.35-1.63,162.69-2.88,244.04
		c-0.17,12.02-2.22,24.08-4.12,36c-0.52,3.36-3.6,6.27-5.51,9.42c-2.7-3.08-7.41-5.92-7.83-9.32c-3.85-31.94-9.63-63.99-9.84-96.03
		c-1.11-174.3-0.87-348.59-0.97-522.89C4521.87,2545.84,4521.94,2399.26,4521.94,2252.65z"/>
	<path class="st4" d="M4407.2,2539.09c0,188.15,0.49,376.31-0.28,564.43c-0.24,61.63-3.6,123.27-6.17,184.9
		c-0.21,4.92-5.51,9.63-8.45,14.45c-3.26-4.37-8.87-8.45-9.35-13.1c-2.67-26.3-5.3-52.69-5.72-79.13
		c-1.32-88.24-1.07-176.48-2.74-264.72c-0.66-34.23-4.92-36.72-39.11-37.59c-29.62-0.73-33.43-4.64-33.47-34.68
		c-0.07-108.51-0.21-217.01-0.07-325.52c0.31-225.05,0.87-450.14,1.21-675.19c0.03-20.2-1.28-40.36-1.04-60.56
		c0.28-24.01,7.59-31.01,31.32-30.59c17.88,0.31,35.72,1.49,53.56,2.18c13.62,0.52,19.71,8.28,19.78,21.1
		c0.1,14.41-0.66,28.82-0.66,43.24c-0.03,202.01,0,403.99,0,606c0,28.27,0,56.54,0,84.81
		C4406.47,2539.09,4406.85,2539.09,4407.2,2539.09z"/>
	<path class="st4" d="M4325.58,3318.79c-44.07-8.38-85.57-18.92-127.7-23.87c-225.5-26.57-487.9-245.35-597.31-470.96
		c-65.03-134.07-101.82-274.56-99.71-423.63c3.81-270.89,101.3-502.38,297.7-690.67c5.27-5.06,11.92-8.66,17.91-12.96
		c0.9,1.18,1.84,2.36,2.74,3.57c-18.78,20.86-37.24,41.95-56.33,62.5c-117.2,126.28-188.5,275.6-216.63,444.52
		c-32.88,197.44-8.11,388.54,85.09,566.58c121.53,232.12,306.74,390.58,560.44,464.89c1.11,0.31,2.15,0.87,3.26,1.14
		c30.69,8.31,35.86,4.47,35.86-27.13c0.03-76.22,0-152.4,0.07-228.62c0.03-27.89,6.58-34.33,34.96-34.33
		c14.41,0,28.86-0.03,43.27,0.62c20.51,0.94,25.33,5.82,25.12,26.57c-0.59,58.86-1.46,117.72-2.53,176.55
		c-0.9,48.43-2.18,96.87-3.46,145.33C4328.24,3304.56,4326.82,3310.17,4325.58,3318.79z"/>
	<g class="st0">
		<path class="st5" d="M3409.71,3837.04c-9.35,0-17.98-0.31-26.57,0.03c-42.02,1.7-54.05-5.96-69.15-44.69
			c-4.61-11.81-9.56-23.52-13.3-35.58c-6.37-20.54-20.82-30.69-45.63-35.13c-3.78,13.58-9.53,27.27-11.05,41.4
			c-1.7,15.9,0.76,32.18,0.76,48.33c0,18.47-7.21,27.16-25.57,27.96c-41.68,1.77-49.13-10.67-48.74-42.2
			c0.97-77.81,0.31-155.62,0.38-233.43c0.03-28.48,4.99-33.57,32.98-33.64c36.9-0.07,73.83-0.28,110.72,0.03
			c57.09,0.49,87.27,29.1,92.08,85.78c2.56,30.18-5.89,55.4-28.72,76.04c-17.95,16.25-18.88,24.81-8.83,47.32
			c13.58,30.49,27.06,61.04,40.53,91.6C3410.06,3831.81,3409.71,3833.06,3409.71,3837.04z M3277.06,3663.85
			c10.77-1.59,21.79-2.32,32.29-4.95c15.62-3.95,24.22-14.34,24.84-31.01c0.62-16.63-6.86-28.24-22.31-32.77
			c-11.95-3.5-24.81-5.4-37.24-5.54c-23.7-0.24-32.53,12.68-31.35,42.92C3244.18,3655.85,3253.26,3664.1,3277.06,3663.85z"/>
		<path class="st5" d="M3862.24,3628.27c12.99-7.79,22.14-13.68,31.63-18.95c46.63-25.98,90.8-3.64,93.96,49.2
			c2.98,50.62,2.74,101.4,4.33,152.09c0.38,11.88-4.33,18.36-15.83,20.58c-4.5,0.87-8.8,2.67-13.27,3.78
			c-26.92,6.69-35.48,0.28-35.34-26.99c0.14-29.97,1.04-59.97,1.04-89.94c0-12.06-0.8-24.18-2.36-36.17
			c-1.97-15.21-11.64-23.52-26.64-24.88c-15.21-1.35-28.06,3.81-33.19,18.99c-3.43,10.15-5.16,21.34-5.3,32.12
			c-0.35,33.43,0.42,66.86,0.87,100.3c0.31,21.96-6.41,29.9-25.91,30.24c-30.63,0.52-39.84-5.89-40.01-29.66
			c-0.21-27.09,1-54.18,0.97-81.28c-0.14-59.97-0.9-119.94-1-179.91c-0.03-33.47,1.91-34.96,35.55-33.92
			c3.46,0.1,6.93,0.49,10.36,0.28c14.97-0.87,21.38,4.47,20.58,20.96C3861.24,3564.91,3862.24,3594.81,3862.24,3628.27z"/>
		<path class="st5" d="M4264.29,3665.76c4.82-38.25,34.06-65.62,75.32-67.21c22.66-0.87,46.22,2.11,68.21,7.86
			c33.92,8.87,49.09,32.32,51.24,71.47c0.49,8.63,0.17,17.32-0.31,25.95c-1.66,29.55-2.08,58.72,13.72,85.61
			c3.98,6.79,5.89,15,7.86,22.8c3.36,13.17-0.62,22.55-14.9,26.02c-17.36,4.23-34.23,5.13-49.44-6.51
			c-20.54-15.69-27.02-16.53-49.61-2.81c-18.05,10.98-37.28,14.65-57.96,12.75c-25.71-2.36-42.96-16.14-51.27-40.01
			c-8.45-24.18-4.75-47.6,13.41-65.89c19.33-19.5,42.34-33.64,71.16-35.2c8.04-0.42,17.01,0.17,23.84-3.19
			c8.97-4.43,20.93-11.02,23.18-19.02c3.43-12.33-14.97-28.86-28.75-28.3c-7.76,0.31-17.18,1.52-22.73,6.1
			C4314.73,3674.63,4290.55,3672.48,4264.29,3665.76z M4372.03,3731.86c-27.13-0.38-49.99,15.69-50.48,30.14
			c-0.49,13.96,19.19,32.74,34.58,33.02c18.92,0.35,39.46-21.41,35.44-42.61C4389.84,3743.16,4376.37,3736.12,4372.03,3731.86z"/>
		<path class="st5" d="M5368.96,3685.78c-2.88-6.41-3.5-7.97-4.26-9.49c-14.65-28.58-20.51-29.55-52.14-20.72
			c-21.79,6.1-44.9,7.45-69.19,11.16c8.77-45.87,43.34-71.26,88.14-68.21c14.31,0.97,28.72,3.08,42.65,6.44
			c38.39,9.28,57.34,33.19,58.41,72.96c0.31,11.5-2.53,23.21-1.25,34.51c2.6,22.55,6.69,44.97,11.02,67.28
			c1.63,8.35,7.1,16.04,8.28,24.42c1.35,9.46,2.46,26.47-0.94,27.68c-13.1,4.82-31.21,10.67-41.61,5.16
			c-24.77-13.13-47.95-14.13-73.1-5.65c-5.44,1.84-10.91,3.71-16.21,5.92c-52.66,22.28-91.74-16.21-87.62-69.22
			c2.63-33.99,24.7-56.37,60.84-62.81c11.33-2.04,23.14-1.87,34.19-4.75C5340.28,3696.8,5353.83,3691.08,5368.96,3685.78z
			 M5339.34,3732.35c-21.24-0.31-42.06,14.52-42.58,30.35c-0.42,12.26,15.42,32.12,25.98,32.6c22.28,1,45.38-17.67,45.28-36.62
			C5367.99,3744.65,5354.83,3732.59,5339.34,3732.35z"/>
		<path class="st5" d="M3708.73,3760.93c-27.09,85.54-91.25,93.61-153.93,72.2c-44.59-15.24-61.11-52.66-64.37-95.83
			c-1.56-20.82,1.14-42.89,6.55-63.12c15.52-57.93,63.12-84.43,126.28-72.86c49.54,9.08,84.88,57.75,81.24,111.17
			c-1.07,15.94-10.29,20.65-24.29,20.16c-31.11-1.04-62.26-3.08-93.33-2.7c-10.43,0.14-28.27,4.75-29.59,10.39
			c-2.6,11.22,0.8,26.5,7.24,36.58c14.62,22.9,49.13,26.23,63.99,5.79c17.32-23.8,39.25-27.89,65.41-23.97
			C3698.51,3759.44,3703.05,3760.1,3708.73,3760.93z M3636.05,3675.56c-1.84-4.75-2.74-9.53-5.27-13.1
			c-9.35-13.13-23.32-17.05-38.11-14.72c-15.9,2.46-29.86,10.15-35.3,26.57c-1.35,4.05,1.59,11.43,4.99,14.83
			c18.19,18.08,51.24,16.42,68.25-2.94C3633.1,3683.32,3634.18,3679.31,3636.05,3675.56z"/>
		<path class="st5" d="M5743.26,3762.18c-5.09,47.57-33.61,75.66-80.76,78.26c-15.45,0.87-31.39,1.11-46.49-1.63
			c-52.31-9.53-83.42-49.06-84.91-108.54c-0.45-18.19,1.8-37.03,6.51-54.6c13.58-50.58,45.87-74.42,99.88-76.46
			c49.71-1.91,82.56,20.3,100.54,68.25c3.64,9.7,7.28,19.5,9.6,29.55c4.88,21.31-1.56,31.42-23.45,32.46
			c-30.49,1.49-61.11,0.38-91.63,0.73c-7.41,0.07-16.01-0.59-21.9,2.84c-5.85,3.43-12.09,11.29-12.65,17.7
			c-1.56,18.19,13.58,36.97,31.77,43.03c17.11,5.68,30.14,1.04,43.65-15.56C5690.88,3756.67,5714.16,3751.37,5743.26,3762.18z
			 M5641.27,3642.58c-11.88,5.65-22.9,8.42-30.63,15.07c-15.21,13.06-12.06,25.81,4.12,37.07c13.27,9.22,26.36,5.23,39.53,3.57
			c7.24-0.9,19.09-3.91,20.02-8c2.08-9.11,1.84-21.96-3.36-28.79C5664.41,3652.94,5651.94,3648.99,5641.27,3642.58z"/>
		<path class="st5" d="M5076.77,3805.27c-9.77,7.97-17.98,15.07-26.61,21.65c-39.18,30-102.03,13.65-103.27-43.44
			c-1.21-54.67-2.67-109.34-3.95-163.97c-0.31-13.2,6.34-19.12,19.33-17.84c38.77,3.78,47.95-9.46,45.73,45.59
			c-1.32,32.81-0.94,65.72,0.1,98.53c0.76,24.7,9.11,36.41,24.15,38.98c16.01,2.74,30.59-4.68,36.03-20.06
			c3.01-8.52,4.64-17.98,4.75-27.02c0.45-33.99,0.35-67.97-0.21-101.92c-0.38-24.36,7.52-33.95,30.14-34.54
			c28.27-0.73,37.62,6.82,37.59,32.25c-0.07,55.92,0,111.83-1.73,167.71c-0.35,11.16-8.56,22.07-13.13,33.12
			c-14.38-6.03-28.89-11.74-42.99-18.33C5080.17,3814.83,5079.34,3810.16,5076.77,3805.27z"/>
		<path class="st5" d="M4574.43,3734.49c0-11.54-0.21-23.04,0.03-34.58c0.45-18.22-5.02-33.19-18.81-46.25
			c-16.56-15.69-14.79-35.72,3.74-48.47c15.04-10.32,21.79-24.29,25.12-41.43c1.46-7.55,4.12-17.46,9.63-20.99
			c9.01-5.79,21.69-11.16,31.15-9.08c5.82,1.28,9.42,16.42,12.4,25.84c1.84,5.79,0.35,12.58,0.73,18.92
			c0.94,15.69,8.45,27.27,24.53,28.55c16.56,1.32,14.93,13.06,16.46,23.32c1.77,11.85-3.4,20.02-14.83,24.04
			c-26.3,9.18-26.33,9.15-26.26,37.59c0.03,21.34-0.07,42.65,0.17,63.99c0.17,17.01,6.58,30.18,23.66,36.34
			c13.72,4.95,19.19,17.67,16.35,28.93c-2.08,8.25-12.89,17.77-21.65,20.3c-44.86,12.92-75.11-7.24-80.79-53.46
			c-2.15-17.56-0.35-35.61-0.35-53.46C4575.29,3734.49,4574.88,3734.49,4574.43,3734.49z"/>
		<path class="st5" d="M4162.12,3676.57c0,44.41-0.03,88.83,0,133.24c0.03,23.18-5.51,28.58-28.62,27.68
			c-4.02-0.14-8.07-0.07-12.09-0.28c-19.71-1.04-25.5-6.69-25.5-26.68c-0.07-47.88,0.42-95.76,0.42-143.6
			c0-41.54-0.45-83.04-0.45-124.58c0-23.04,5.44-28.2,28.69-28.48c4.05-0.03,8.07-0.1,12.13-0.03c20.13,0.45,25.67,6.03,25.67,25.98
			c0.03,45.56,0,91.11,0,136.67C4162.26,3676.57,4162.19,3676.57,4162.12,3676.57z"/>
		<path class="st5" d="M4839.25,3721.33c0,28.79,0.14,57.61-0.03,86.4c-0.14,24.32-5.61,29.66-29.38,29.69
			c-29.62,0.03-35.51-4.64-35.58-29.07c-0.1-58.83-0.14-117.65,0.03-176.51c0.07-24.46,4.99-27.75,38.14-27.33
			c21.2,0.28,26.85,6.37,26.81,28.65C4839.22,3662.57,4839.25,3691.95,4839.25,3721.33z"/>
		<path class="st5" d="M4805.61,3513.81c26.16-1,34.3,5.06,34.61,25.81c0.28,17.74-7.59,25.67-26.36,26.43
			c-31.01,1.32-38.84-3.5-39.67-24.32C4773.32,3518.69,4777.62,3514.88,4805.61,3513.81z"/>
		<path class="st5" d="M3277.06,3663.85c-23.8,0.24-32.88-8-33.78-31.35c-1.18-30.24,7.66-43.17,31.35-42.92
			c12.47,0.1,25.29,2.04,37.24,5.54c15.45,4.54,22.93,16.14,22.31,32.77c-0.62,16.66-9.25,27.06-24.84,31.01
			C3298.85,3661.53,3287.84,3662.26,3277.06,3663.85z"/>
		<path class="st5" d="M4372.03,3731.86c4.33,4.26,17.81,11.29,19.54,20.54c4.02,21.2-16.53,42.96-35.44,42.61
			c-15.38-0.28-35.06-19.09-34.58-33.02C4322.04,3747.55,4344.91,3731.48,4372.03,3731.86z"/>
		<path class="st5" d="M5339.34,3732.35c15.52,0.24,28.65,12.3,28.72,26.33c0.07,18.95-23,37.66-45.28,36.62
			c-10.57-0.49-26.4-20.34-25.98-32.6C5297.29,3746.86,5318.07,3732.03,5339.34,3732.35z"/>
		<path class="st5" d="M3636.05,3675.56c-1.87,3.74-2.98,7.8-5.44,10.6c-17.01,19.37-50.03,21.03-68.25,2.94
			c-3.4-3.4-6.34-10.77-4.99-14.83c5.44-16.42,19.4-24.11,35.3-26.57c14.83-2.29,28.79,1.63,38.11,14.72
			C3633.34,3666.04,3634.21,3670.78,3636.05,3675.56z"/>
		<path class="st5" d="M5641.27,3642.58c10.71,6.41,23.14,10.39,29.66,18.88c5.2,6.79,5.47,19.64,3.36,28.79
			c-0.94,4.09-12.78,7.1-20.02,8c-13.17,1.66-26.26,5.65-39.53-3.57c-16.18-11.26-19.33-24.01-4.12-37.07
			C5618.34,3651,5629.39,3648.19,5641.27,3642.58z"/>
	</g>
</g>
<g>
	<g>
		<path class="st4" d="M3238.67,3687.27v129.22h-67.21v-322.99h168.93c71.82,0,114.99,34.68,114.99,90.8
			c0,40.85-22.69,66.41-57.13,76.6c15.8,5.44,48.74,19.26,48.74,76.77v15.52c0,23-0.31,48.61,3.98,63.33h-69.57
			c-5.23-14.17-5.44-35.03-5.44-67v-10.67c0-37.49-14.07-51.55-64.23-51.55h-73.07V3687.27z M3238.67,3635.38h86.13
			c42.06,0,61.18-15,61.18-45.83c0-28.65-19.47-44.14-60.18-44.14h-87.13V3635.38z"/>
		<path class="st4" d="M3580.55,3714.71c2.11,33.64,25.78,59.21,64.85,59.21c30.76,0,46.22-10.6,56.02-27.65h64.72
			c-13.68,39.49-48.29,76.6-122.02,76.6c-92.33,0-128.12-63.02-128.12-123.33c0-67.63,45.32-124.2,127.39-124.2
			c90.66,0,125.79,63.68,125.79,123.58c0,5.3,0,9.22-0.31,15.8L3580.55,3714.71L3580.55,3714.71z M3703.12,3673.69
			c-1.66-21.06-12.92-51.97-59.87-51.97c-41.89,0-59,24.04-61.81,51.97H3703.12z"/>
		<path class="st4" d="M3900.66,3474.94v140.21c8.73-14.41,29.41-39.81,80.65-39.81c56.57,0,91.15,32.98,91.15,100.02v141.14h-65.37
			v-133.42c0-33.02-10.01-56.57-46.94-56.57c-39.7,0-59.17,30.28-59.17,76.43v113.56h-64.72v-341.56L3900.66,3474.94
			L3900.66,3474.94z"/>
		<path class="st4" d="M4155.99,3816.5v-341.56h64.72v341.56H4155.99z"/>
		<path class="st4" d="M4528.11,3753.13c0,28.1,1.39,58.2,1.97,63.36h-61.25c-1.84-6.55-2.43-22.03-2.74-29
			c-12.54,21.58-39.43,35.37-85.33,35.37c-64.89,0-90.32-39.46-90.32-76.25c0-61.15,54.15-78.12,122.68-78.12
			c21.51,0,43.62,0,51.72,0v-9.01c0-21.1-9.15-39.22-48.5-39.22c-36.13,0-44.35,14.48-47.91,30.49h-64.72
			c2.25-29.62,22.83-75.46,111.8-75.46c96.73,0,112.63,46.01,112.63,85.12v92.71H4528.11z M4464.81,3710.55
			c-5.99-0.31-22.03-0.31-50.48-0.31c-42.82,0-60.97,10.57-60.97,33.12c0,17.81,13.89,32.5,44.62,32.5
			c47.53,0,66.83-24.25,66.83-59.59V3710.55z"/>
		<path class="st4" d="M4585.76,3581.75h43.51v-71.19h65.06v71.19h56.51v47.88h-56.51v108.23c0,22.17,5.02,32.22,28.65,32.22
			c6.55,0,14.48-0.14,21.03-1.63v45.07c-12.02,3.67-27.58,4.95-43.69,4.95c-54.91,0-71.06-24.01-71.06-69.95v-118.9h-43.51
			L4585.76,3581.75L4585.76,3581.75z"/>
		<path class="st4" d="M4814.13,3474.94h64.72v57.3h-64.72V3474.94z M4814.13,3581.75h64.72v234.75h-64.72V3581.75z"/>
		<path class="st4" d="M5194.43,3748.11c0,22.73-0.31,45.63,0.14,68.39h-63.02c-0.9-6.41-1.18-19.02-1.52-31.32
			c-11.74,21.03-30.63,37.69-80.58,37.69c-49.26,0-87.72-28.17-87.72-97.04v-144.09h64.72v133.17c0,32.57,12.19,56.68,46.63,56.68
			c40.64,0,56.61-23.77,56.61-82.11v-107.74h64.72v166.36H5194.43z"/>
		<path class="st4" d="M5501.55,3753.13c0,28.1,1.39,58.2,1.97,63.36h-61.25c-1.84-6.55-2.42-22.03-2.74-29
			c-12.54,21.58-39.43,35.37-85.33,35.37c-64.89,0-90.32-39.46-90.32-76.25c0-61.15,54.15-78.12,122.68-78.12
			c21.51,0,43.62,0,51.72,0v-9.01c0-21.1-9.15-39.22-48.5-39.22c-36.17,0-44.34,14.48-47.91,30.49h-64.72
			c2.25-29.62,22.83-75.46,111.8-75.46c96.73,0,112.63,46.01,112.63,85.12v92.71H5501.55z M5438.25,3710.55
			c-5.99-0.31-22.03-0.31-50.48-0.31c-42.82,0-60.97,10.57-60.97,33.12c0,17.81,13.89,32.5,44.62,32.5
			c47.53,0,66.83-24.25,66.83-59.59V3710.55z"/>
		<path class="st4" d="M5634.9,3714.71c2.11,33.64,25.78,59.21,64.85,59.21c30.76,0,46.22-10.6,56.02-27.65h64.72
			c-13.68,39.49-48.29,76.6-122.02,76.6c-92.33,0-128.12-63.02-128.12-123.33c0-67.63,45.31-124.2,127.39-124.2
			c90.67,0,125.79,63.68,125.79,123.58c0,5.3,0,9.22-0.31,15.8L5634.9,3714.71L5634.9,3714.71z M5757.47,3673.69
			c-1.63-21.06-12.92-51.97-59.87-51.97c-41.89,0-59,24.04-61.81,51.97H5757.47z"/>
	</g>
</g>
</svg>
