<svg width="24" height="24" viewBox="0 0 24 24" fill="blue" xmlns="http://www.w3.org/2000/svg">
<path d="M21.1002 10.77C21.6702 11.5 21.6702 12.51 21.1002 13.24C19.5302 15.25 16.0402 19.01 12.0002 19.01C7.96016 19.01 4.47016 15.25 2.90016 13.24C2.33016 12.51 2.33016 11.5 2.90016 10.77C4.47016 8.76 7.96016 5 12.0002 5C16.0402 5 19.5302 8.76 21.1002 10.77Z" stroke="white" stroke-linecap="round" stroke-linejoin="round"/>
<path d="M12 15C13.6569 15 15 13.6569 15 12C15 10.3431 13.6569 9 12 9C10.3431 9 9 10.3431 9 12C9 13.6569 10.3431 15 12 15Z" stroke="white" stroke-linecap="round" stroke-linejoin="round"/>
<path d="M10.5 11C10.7761 11 11 10.7761 11 10.5C11 10.2239 10.7761 10 10.5 10C10.2239 10 10 10.2239 10 10.5C10 10.7761 10.2239 11 10.5 11Z" stroke="white" stroke-linecap="round" stroke-linejoin="round"/>
</svg>
